<svg width="20" height="20" viewBox="0 0 20 20" fill="none" xmlns="http://www.w3.org/2000/svg">
<path fill-rule="evenodd" clip-rule="evenodd" d="M4.97994 15.0202C4.78468 14.825 4.78468 14.5084 4.97994 14.3131L14.1264 5.16667L8.00017 5.16667C7.72402 5.16667 7.50017 4.94281 7.50017 4.66667C7.50017 4.39053 7.72402 4.16667 8.00017 4.16667L15.3335 4.16667C15.4661 4.16667 15.5933 4.21935 15.6871 4.31312C15.7808 4.40689 15.8335 4.53406 15.8335 4.66667L15.8335 12C15.8335 12.2762 15.6096 12.5 15.3335 12.5C15.0574 12.5 14.8335 12.2762 14.8335 12L14.8335 5.87378L5.68705 15.0202C5.49179 15.2155 5.17521 15.2155 4.97994 15.0202Z" fill="#C2C2C2"/>
</svg>
