<svg width="133" height="29" viewBox="0 0 133 29" fill="none" xmlns="http://www.w3.org/2000/svg">
<mask id="path-1-outside-1_831_692" maskUnits="userSpaceOnUse" x="0" y="0.316437" width="133" height="29" fill="black">
<rect fill="white" y="0.316437" width="133" height="29"/>
<path d="M9.03088 21.4217C6.35392 21.4217 4.34152 20.4951 2.99368 18.6418C1.66456 16.7885 1 14.383 1 11.4252C1 8.46748 1.66456 6.06196 2.99368 4.20868C4.34152 2.3554 6.35392 1.42876 9.03088 1.42876C10.7906 1.42876 12.3911 1.86868 13.8326 2.74852L13.0463 4.62988C11.8108 3.86236 10.4723 3.4786 9.03088 3.4786C7.10272 3.4786 5.65192 4.21804 4.67848 5.69692C3.72376 7.15708 3.2464 9.06652 3.2464 11.4252C3.2464 13.784 3.72376 15.7028 4.67848 17.1816C5.65192 18.6418 7.10272 19.3719 9.03088 19.3719C10.6221 19.3719 12.0542 18.9788 13.3271 18.1925L14.3099 19.9335C12.7 20.9256 10.9403 21.4217 9.03088 21.4217Z"/>
<path d="M19.1166 20.9724H16.9826V9.74044L16.7018 6.93244L18.555 6.79204L19.1166 10.1616C19.6782 9.001 20.3896 8.12116 21.2507 7.52212C22.1118 6.92308 23.0478 6.62356 24.0587 6.62356L24.1991 8.75764C20.9044 9.01972 19.2102 11.5376 19.1166 16.3112V20.9724Z"/>
<path d="M29.9994 27.6836L28.1742 27.0658L30.0836 21.7025L24.608 6.93244H26.9106L31.1507 18.6699L35.3346 6.93244H37.581L29.9994 27.6836Z"/>
<path d="M43.8599 19.428C44.6836 19.428 45.3763 19.2315 45.9379 18.8384C46.4995 18.4452 46.7803 17.9585 46.7803 17.3782C46.7803 16.7792 46.6212 16.3112 46.3029 15.9742C45.9847 15.6185 45.6383 15.3658 45.2639 15.216C44.9083 15.0663 44.3935 14.8978 43.7195 14.7106C43.0456 14.5047 42.5308 14.3362 42.1751 14.2052C41.8195 14.0554 41.3983 13.8308 40.9115 13.5312C39.9943 12.9696 39.5356 12.0149 39.5356 10.6671C39.5356 9.30052 39.9943 8.27092 40.9115 7.57828C41.8288 6.88564 42.9052 6.53932 44.1407 6.53932C44.9083 6.53932 45.6758 6.64228 46.4433 6.8482C47.2295 7.05412 47.8192 7.2694 48.2123 7.49404L47.4261 9.20692C46.5275 8.7202 45.4324 8.47684 44.1407 8.47684C43.4855 8.47684 42.9052 8.65468 42.3998 9.01036C41.9131 9.34732 41.6697 9.78724 41.6697 10.3301C41.6697 10.8543 41.8195 11.2661 42.119 11.5656C42.4185 11.8652 42.7274 12.0804 43.0456 12.2115C43.3639 12.3425 43.8506 12.5016 44.5058 12.6888C45.161 12.876 45.6852 13.0539 46.0783 13.2224C46.4901 13.3721 46.9487 13.6155 47.4542 13.9524C48.4276 14.6076 48.9143 15.6466 48.9143 17.0693C48.9143 18.4733 48.4276 19.5404 47.4542 20.2704C46.4995 21.0005 45.3014 21.3656 43.8599 21.3656C41.9131 21.3656 40.2657 20.7384 38.9179 19.4842L40.0691 17.9398C41.0987 18.932 42.3623 19.428 43.8599 19.428Z"/>
<path d="M50.702 8.75764V6.93244H52.8361L53.51 2.72044H54.9702V6.93244H58.2556V8.75764H54.9702V17.9117C54.9702 18.9413 55.3914 19.4561 56.2338 19.4561C56.8703 19.4561 57.5629 19.1847 58.3117 18.6418L59.098 20.0739C58.0122 20.935 56.9545 21.3656 55.9249 21.3656C54.8953 21.3656 54.1184 21.1222 53.5943 20.6355C53.0888 20.13 52.8361 19.2221 52.8361 17.9117V8.75764H50.702Z"/>
<path d="M65.951 21.3656C64.3411 21.3656 63.0213 20.7572 61.9917 19.5404C60.9621 18.3236 60.4473 16.5732 60.4473 14.2894C60.4473 11.9868 61.0932 10.1242 62.3848 8.70148C63.6952 7.26004 65.3145 6.53932 67.2427 6.53932C69.1896 6.53932 70.9399 7.0822 72.4936 8.16796V18.1644L72.7745 20.9724L70.9212 21.1128L70.4438 18.5856C69.3955 20.4389 67.8979 21.3656 65.951 21.3656ZM62.5814 14.2332C62.5814 15.918 62.9371 17.2097 63.6484 18.1083C64.3598 19.0068 65.2677 19.4561 66.3722 19.4561C67.4954 19.4561 68.4408 18.9039 69.2083 17.7994C69.9758 16.6762 70.3596 15.0944 70.3596 13.0539V9.15076C69.4236 8.68276 68.422 8.44876 67.355 8.44876C65.9697 8.44876 64.8278 8.99164 63.9292 10.0774C63.0307 11.1444 62.5814 12.5297 62.5814 14.2332Z"/>
<path d="M77.1396 1.31644H79.2737V17.8836C79.2737 18.9132 79.6949 19.428 80.5373 19.428C81.0801 19.428 81.6136 19.2408 82.1378 18.8664L82.9802 20.3828C81.9506 21.038 80.9772 21.3656 80.0599 21.3656C79.1426 21.3656 78.4219 21.1128 77.8977 20.6074C77.3923 20.102 77.1396 19.194 77.1396 17.8836V1.31644Z"/>
<path d="M86.9309 20.9724H84.7969V9.74044L84.5161 6.93244L86.3693 6.79204L86.9309 10.1616C87.4925 9.001 88.2039 8.12116 89.065 7.52212C89.9261 6.92308 90.8621 6.62356 91.873 6.62356L92.0134 8.75764C88.7187 9.01972 87.0245 11.5376 86.9309 16.3112V20.9724Z"/>
<path d="M95.2303 19.3157C94.2007 17.9304 93.6859 16.1427 93.6859 13.9524C93.6859 11.7622 94.2007 9.9838 95.2303 8.61724C96.2599 7.23196 97.795 6.53932 99.8354 6.53932C101.895 6.53932 103.448 7.23196 104.497 8.61724C105.545 9.9838 106.069 11.7622 106.069 13.9524C106.069 16.1427 105.545 17.9304 104.497 19.3157C103.448 20.6823 101.895 21.3656 99.8354 21.3656C97.795 21.3656 96.2599 20.6823 95.2303 19.3157ZM96.8309 9.99316C96.157 11.004 95.82 12.3238 95.82 13.9524C95.82 15.5811 96.157 16.9102 96.8309 17.9398C97.5048 18.9507 98.5157 19.4561 99.8635 19.4561C101.211 19.4561 102.222 18.9507 102.896 17.9398C103.589 16.9102 103.935 15.5811 103.935 13.9524C103.935 12.3238 103.589 11.004 102.896 9.99316C102.222 8.96356 101.211 8.44876 99.8635 8.44876C98.5157 8.44876 97.5048 8.96356 96.8309 9.99316Z"/>
<path d="M111.995 20.9724H109.86V9.74044L109.58 6.93244L111.433 6.79204L111.995 10.1616C112.556 9.001 113.267 8.12116 114.129 7.52212C114.99 6.92308 115.926 6.62356 116.937 6.62356L117.077 8.75764C113.782 9.01972 112.088 11.5376 111.995 16.3112V20.9724Z"/>
<path d="M131.357 20.9724H129.223V12.4361C129.223 9.77788 128.278 8.44876 126.387 8.44876C125.302 8.44876 124.309 9.01036 123.411 10.1336C122.531 11.2568 122.063 12.8012 122.007 14.7668V20.9724H119.873V1.31644H122.007V9.6562C122.568 8.64532 123.27 7.8778 124.113 7.35364C124.974 6.81076 125.854 6.53932 126.752 6.53932C129.822 6.53932 131.357 8.50492 131.357 12.4361V20.9724Z"/>
</mask>
<path d="M9.03088 21.4217C6.35392 21.4217 4.34152 20.4951 2.99368 18.6418C1.66456 16.7885 1 14.383 1 11.4252C1 8.46748 1.66456 6.06196 2.99368 4.20868C4.34152 2.3554 6.35392 1.42876 9.03088 1.42876C10.7906 1.42876 12.3911 1.86868 13.8326 2.74852L13.0463 4.62988C11.8108 3.86236 10.4723 3.4786 9.03088 3.4786C7.10272 3.4786 5.65192 4.21804 4.67848 5.69692C3.72376 7.15708 3.2464 9.06652 3.2464 11.4252C3.2464 13.784 3.72376 15.7028 4.67848 17.1816C5.65192 18.6418 7.10272 19.3719 9.03088 19.3719C10.6221 19.3719 12.0542 18.9788 13.3271 18.1925L14.3099 19.9335C12.7 20.9256 10.9403 21.4217 9.03088 21.4217Z" fill="white"/>
<path d="M19.1166 20.9724H16.9826V9.74044L16.7018 6.93244L18.555 6.79204L19.1166 10.1616C19.6782 9.001 20.3896 8.12116 21.2507 7.52212C22.1118 6.92308 23.0478 6.62356 24.0587 6.62356L24.1991 8.75764C20.9044 9.01972 19.2102 11.5376 19.1166 16.3112V20.9724Z" fill="white"/>
<path d="M29.9994 27.6836L28.1742 27.0658L30.0836 21.7025L24.608 6.93244H26.9106L31.1507 18.6699L35.3346 6.93244H37.581L29.9994 27.6836Z" fill="white"/>
<path d="M43.8599 19.428C44.6836 19.428 45.3763 19.2315 45.9379 18.8384C46.4995 18.4452 46.7803 17.9585 46.7803 17.3782C46.7803 16.7792 46.6212 16.3112 46.3029 15.9742C45.9847 15.6185 45.6383 15.3658 45.2639 15.216C44.9083 15.0663 44.3935 14.8978 43.7195 14.7106C43.0456 14.5047 42.5308 14.3362 42.1751 14.2052C41.8195 14.0554 41.3983 13.8308 40.9115 13.5312C39.9943 12.9696 39.5356 12.0149 39.5356 10.6671C39.5356 9.30052 39.9943 8.27092 40.9115 7.57828C41.8288 6.88564 42.9052 6.53932 44.1407 6.53932C44.9083 6.53932 45.6758 6.64228 46.4433 6.8482C47.2295 7.05412 47.8192 7.2694 48.2123 7.49404L47.4261 9.20692C46.5275 8.7202 45.4324 8.47684 44.1407 8.47684C43.4855 8.47684 42.9052 8.65468 42.3998 9.01036C41.9131 9.34732 41.6697 9.78724 41.6697 10.3301C41.6697 10.8543 41.8195 11.2661 42.119 11.5656C42.4185 11.8652 42.7274 12.0804 43.0456 12.2115C43.3639 12.3425 43.8506 12.5016 44.5058 12.6888C45.161 12.876 45.6852 13.0539 46.0783 13.2224C46.4901 13.3721 46.9487 13.6155 47.4542 13.9524C48.4276 14.6076 48.9143 15.6466 48.9143 17.0693C48.9143 18.4733 48.4276 19.5404 47.4542 20.2704C46.4995 21.0005 45.3014 21.3656 43.8599 21.3656C41.9131 21.3656 40.2657 20.7384 38.9179 19.4842L40.0691 17.9398C41.0987 18.932 42.3623 19.428 43.8599 19.428Z" fill="white"/>
<path d="M50.702 8.75764V6.93244H52.8361L53.51 2.72044H54.9702V6.93244H58.2556V8.75764H54.9702V17.9117C54.9702 18.9413 55.3914 19.4561 56.2338 19.4561C56.8703 19.4561 57.5629 19.1847 58.3117 18.6418L59.098 20.0739C58.0122 20.935 56.9545 21.3656 55.9249 21.3656C54.8953 21.3656 54.1184 21.1222 53.5943 20.6355C53.0888 20.13 52.8361 19.2221 52.8361 17.9117V8.75764H50.702Z" fill="white"/>
<path d="M65.951 21.3656C64.3411 21.3656 63.0213 20.7572 61.9917 19.5404C60.9621 18.3236 60.4473 16.5732 60.4473 14.2894C60.4473 11.9868 61.0932 10.1242 62.3848 8.70148C63.6952 7.26004 65.3145 6.53932 67.2427 6.53932C69.1896 6.53932 70.9399 7.0822 72.4936 8.16796V18.1644L72.7745 20.9724L70.9212 21.1128L70.4438 18.5856C69.3955 20.4389 67.8979 21.3656 65.951 21.3656ZM62.5814 14.2332C62.5814 15.918 62.9371 17.2097 63.6484 18.1083C64.3598 19.0068 65.2677 19.4561 66.3722 19.4561C67.4954 19.4561 68.4408 18.9039 69.2083 17.7994C69.9758 16.6762 70.3596 15.0944 70.3596 13.0539V9.15076C69.4236 8.68276 68.422 8.44876 67.355 8.44876C65.9697 8.44876 64.8278 8.99164 63.9292 10.0774C63.0307 11.1444 62.5814 12.5297 62.5814 14.2332Z" fill="white"/>
<path d="M77.1396 1.31644H79.2737V17.8836C79.2737 18.9132 79.6949 19.428 80.5373 19.428C81.0801 19.428 81.6136 19.2408 82.1378 18.8664L82.9802 20.3828C81.9506 21.038 80.9772 21.3656 80.0599 21.3656C79.1426 21.3656 78.4219 21.1128 77.8977 20.6074C77.3923 20.102 77.1396 19.194 77.1396 17.8836V1.31644Z" fill="white"/>
<path d="M86.9309 20.9724H84.7969V9.74044L84.5161 6.93244L86.3693 6.79204L86.9309 10.1616C87.4925 9.001 88.2039 8.12116 89.065 7.52212C89.9261 6.92308 90.8621 6.62356 91.873 6.62356L92.0134 8.75764C88.7187 9.01972 87.0245 11.5376 86.9309 16.3112V20.9724Z" fill="white"/>
<path d="M95.2303 19.3157C94.2007 17.9304 93.6859 16.1427 93.6859 13.9524C93.6859 11.7622 94.2007 9.9838 95.2303 8.61724C96.2599 7.23196 97.795 6.53932 99.8354 6.53932C101.895 6.53932 103.448 7.23196 104.497 8.61724C105.545 9.9838 106.069 11.7622 106.069 13.9524C106.069 16.1427 105.545 17.9304 104.497 19.3157C103.448 20.6823 101.895 21.3656 99.8354 21.3656C97.795 21.3656 96.2599 20.6823 95.2303 19.3157ZM96.8309 9.99316C96.157 11.004 95.82 12.3238 95.82 13.9524C95.82 15.5811 96.157 16.9102 96.8309 17.9398C97.5048 18.9507 98.5157 19.4561 99.8635 19.4561C101.211 19.4561 102.222 18.9507 102.896 17.9398C103.589 16.9102 103.935 15.5811 103.935 13.9524C103.935 12.3238 103.589 11.004 102.896 9.99316C102.222 8.96356 101.211 8.44876 99.8635 8.44876C98.5157 8.44876 97.5048 8.96356 96.8309 9.99316Z" fill="white"/>
<path d="M111.995 20.9724H109.86V9.74044L109.58 6.93244L111.433 6.79204L111.995 10.1616C112.556 9.001 113.267 8.12116 114.129 7.52212C114.99 6.92308 115.926 6.62356 116.937 6.62356L117.077 8.75764C113.782 9.01972 112.088 11.5376 111.995 16.3112V20.9724Z" fill="white"/>
<path d="M131.357 20.9724H129.223V12.4361C129.223 9.77788 128.278 8.44876 126.387 8.44876C125.302 8.44876 124.309 9.01036 123.411 10.1336C122.531 11.2568 122.063 12.8012 122.007 14.7668V20.9724H119.873V1.31644H122.007V9.6562C122.568 8.64532 123.27 7.8778 124.113 7.35364C124.974 6.81076 125.854 6.53932 126.752 6.53932C129.822 6.53932 131.357 8.50492 131.357 12.4361V20.9724Z" fill="white"/>
<path d="M9.03088 21.4217C6.35392 21.4217 4.34152 20.4951 2.99368 18.6418C1.66456 16.7885 1 14.383 1 11.4252C1 8.46748 1.66456 6.06196 2.99368 4.20868C4.34152 2.3554 6.35392 1.42876 9.03088 1.42876C10.7906 1.42876 12.3911 1.86868 13.8326 2.74852L13.0463 4.62988C11.8108 3.86236 10.4723 3.4786 9.03088 3.4786C7.10272 3.4786 5.65192 4.21804 4.67848 5.69692C3.72376 7.15708 3.2464 9.06652 3.2464 11.4252C3.2464 13.784 3.72376 15.7028 4.67848 17.1816C5.65192 18.6418 7.10272 19.3719 9.03088 19.3719C10.6221 19.3719 12.0542 18.9788 13.3271 18.1925L14.3099 19.9335C12.7 20.9256 10.9403 21.4217 9.03088 21.4217Z" stroke="white" stroke-width="1.638" mask="url(#path-1-outside-1_831_692)"/>
<path d="M19.1166 20.9724H16.9826V9.74044L16.7018 6.93244L18.555 6.79204L19.1166 10.1616C19.6782 9.001 20.3896 8.12116 21.2507 7.52212C22.1118 6.92308 23.0478 6.62356 24.0587 6.62356L24.1991 8.75764C20.9044 9.01972 19.2102 11.5376 19.1166 16.3112V20.9724Z" stroke="white" stroke-width="1.638" mask="url(#path-1-outside-1_831_692)"/>
<path d="M29.9994 27.6836L28.1742 27.0658L30.0836 21.7025L24.608 6.93244H26.9106L31.1507 18.6699L35.3346 6.93244H37.581L29.9994 27.6836Z" stroke="white" stroke-width="1.638" mask="url(#path-1-outside-1_831_692)"/>
<path d="M43.8599 19.428C44.6836 19.428 45.3763 19.2315 45.9379 18.8384C46.4995 18.4452 46.7803 17.9585 46.7803 17.3782C46.7803 16.7792 46.6212 16.3112 46.3029 15.9742C45.9847 15.6185 45.6383 15.3658 45.2639 15.216C44.9083 15.0663 44.3935 14.8978 43.7195 14.7106C43.0456 14.5047 42.5308 14.3362 42.1751 14.2052C41.8195 14.0554 41.3983 13.8308 40.9115 13.5312C39.9943 12.9696 39.5356 12.0149 39.5356 10.6671C39.5356 9.30052 39.9943 8.27092 40.9115 7.57828C41.8288 6.88564 42.9052 6.53932 44.1407 6.53932C44.9083 6.53932 45.6758 6.64228 46.4433 6.8482C47.2295 7.05412 47.8192 7.2694 48.2123 7.49404L47.4261 9.20692C46.5275 8.7202 45.4324 8.47684 44.1407 8.47684C43.4855 8.47684 42.9052 8.65468 42.3998 9.01036C41.9131 9.34732 41.6697 9.78724 41.6697 10.3301C41.6697 10.8543 41.8195 11.2661 42.119 11.5656C42.4185 11.8652 42.7274 12.0804 43.0456 12.2115C43.3639 12.3425 43.8506 12.5016 44.5058 12.6888C45.161 12.876 45.6852 13.0539 46.0783 13.2224C46.4901 13.3721 46.9487 13.6155 47.4542 13.9524C48.4276 14.6076 48.9143 15.6466 48.9143 17.0693C48.9143 18.4733 48.4276 19.5404 47.4542 20.2704C46.4995 21.0005 45.3014 21.3656 43.8599 21.3656C41.9131 21.3656 40.2657 20.7384 38.9179 19.4842L40.0691 17.9398C41.0987 18.932 42.3623 19.428 43.8599 19.428Z" stroke="white" stroke-width="1.638" mask="url(#path-1-outside-1_831_692)"/>
<path d="M50.702 8.75764V6.93244H52.8361L53.51 2.72044H54.9702V6.93244H58.2556V8.75764H54.9702V17.9117C54.9702 18.9413 55.3914 19.4561 56.2338 19.4561C56.8703 19.4561 57.5629 19.1847 58.3117 18.6418L59.098 20.0739C58.0122 20.935 56.9545 21.3656 55.9249 21.3656C54.8953 21.3656 54.1184 21.1222 53.5943 20.6355C53.0888 20.13 52.8361 19.2221 52.8361 17.9117V8.75764H50.702Z" stroke="white" stroke-width="1.638" mask="url(#path-1-outside-1_831_692)"/>
<path d="M65.951 21.3656C64.3411 21.3656 63.0213 20.7572 61.9917 19.5404C60.9621 18.3236 60.4473 16.5732 60.4473 14.2894C60.4473 11.9868 61.0932 10.1242 62.3848 8.70148C63.6952 7.26004 65.3145 6.53932 67.2427 6.53932C69.1896 6.53932 70.9399 7.0822 72.4936 8.16796V18.1644L72.7745 20.9724L70.9212 21.1128L70.4438 18.5856C69.3955 20.4389 67.8979 21.3656 65.951 21.3656ZM62.5814 14.2332C62.5814 15.918 62.9371 17.2097 63.6484 18.1083C64.3598 19.0068 65.2677 19.4561 66.3722 19.4561C67.4954 19.4561 68.4408 18.9039 69.2083 17.7994C69.9758 16.6762 70.3596 15.0944 70.3596 13.0539V9.15076C69.4236 8.68276 68.422 8.44876 67.355 8.44876C65.9697 8.44876 64.8278 8.99164 63.9292 10.0774C63.0307 11.1444 62.5814 12.5297 62.5814 14.2332Z" stroke="white" stroke-width="1.638" mask="url(#path-1-outside-1_831_692)"/>
<path d="M77.1396 1.31644H79.2737V17.8836C79.2737 18.9132 79.6949 19.428 80.5373 19.428C81.0801 19.428 81.6136 19.2408 82.1378 18.8664L82.9802 20.3828C81.9506 21.038 80.9772 21.3656 80.0599 21.3656C79.1426 21.3656 78.4219 21.1128 77.8977 20.6074C77.3923 20.102 77.1396 19.194 77.1396 17.8836V1.31644Z" stroke="white" stroke-width="1.638" mask="url(#path-1-outside-1_831_692)"/>
<path d="M86.9309 20.9724H84.7969V9.74044L84.5161 6.93244L86.3693 6.79204L86.9309 10.1616C87.4925 9.001 88.2039 8.12116 89.065 7.52212C89.9261 6.92308 90.8621 6.62356 91.873 6.62356L92.0134 8.75764C88.7187 9.01972 87.0245 11.5376 86.9309 16.3112V20.9724Z" stroke="white" stroke-width="1.638" mask="url(#path-1-outside-1_831_692)"/>
<path d="M95.2303 19.3157C94.2007 17.9304 93.6859 16.1427 93.6859 13.9524C93.6859 11.7622 94.2007 9.9838 95.2303 8.61724C96.2599 7.23196 97.795 6.53932 99.8354 6.53932C101.895 6.53932 103.448 7.23196 104.497 8.61724C105.545 9.9838 106.069 11.7622 106.069 13.9524C106.069 16.1427 105.545 17.9304 104.497 19.3157C103.448 20.6823 101.895 21.3656 99.8354 21.3656C97.795 21.3656 96.2599 20.6823 95.2303 19.3157ZM96.8309 9.99316C96.157 11.004 95.82 12.3238 95.82 13.9524C95.82 15.5811 96.157 16.9102 96.8309 17.9398C97.5048 18.9507 98.5157 19.4561 99.8635 19.4561C101.211 19.4561 102.222 18.9507 102.896 17.9398C103.589 16.9102 103.935 15.5811 103.935 13.9524C103.935 12.3238 103.589 11.004 102.896 9.99316C102.222 8.96356 101.211 8.44876 99.8635 8.44876C98.5157 8.44876 97.5048 8.96356 96.8309 9.99316Z" stroke="white" stroke-width="1.638" mask="url(#path-1-outside-1_831_692)"/>
<path d="M111.995 20.9724H109.86V9.74044L109.58 6.93244L111.433 6.79204L111.995 10.1616C112.556 9.001 113.267 8.12116 114.129 7.52212C114.99 6.92308 115.926 6.62356 116.937 6.62356L117.077 8.75764C113.782 9.01972 112.088 11.5376 111.995 16.3112V20.9724Z" stroke="white" stroke-width="1.638" mask="url(#path-1-outside-1_831_692)"/>
<path d="M131.357 20.9724H129.223V12.4361C129.223 9.77788 128.278 8.44876 126.387 8.44876C125.302 8.44876 124.309 9.01036 123.411 10.1336C122.531 11.2568 122.063 12.8012 122.007 14.7668V20.9724H119.873V1.31644H122.007V9.6562C122.568 8.64532 123.27 7.8778 124.113 7.35364C124.974 6.81076 125.854 6.53932 126.752 6.53932C129.822 6.53932 131.357 8.50492 131.357 12.4361V20.9724Z" stroke="white" stroke-width="1.638" mask="url(#path-1-outside-1_831_692)"/>
</svg>
