<svg width="23" height="24" viewBox="0 0 23 24" fill="none" xmlns="http://www.w3.org/2000/svg">
<path fill-rule="evenodd" clip-rule="evenodd" d="M8.56788 3.87942C6.48321 4.56772 4.75347 6.03635 3.7245 7.93944C4.6685 7.56504 5.72836 7.27639 6.84945 7.07107C7.2667 5.92243 7.83876 4.84092 8.56788 3.87942ZM2.72132 11.4C2.76998 10.6981 2.90338 10.0194 3.11136 9.37427C4.05296 8.87418 5.21139 8.48532 6.49113 8.2123C6.21462 9.24853 6.05559 10.3228 6.01257 11.4H2.72132ZM7.06343 11.4C7.11316 10.2384 7.30738 9.08982 7.6438 8.00243C8.60933 7.85515 9.62314 7.76847 10.6497 7.74412V11.4H7.06343ZM11.8497 11.4V7.74407C12.9117 7.76916 13.96 7.86094 14.9554 8.01752C15.3001 9.1007 15.4991 10.244 15.5502 11.4H11.8497ZM11.8497 6.6938C12.7544 6.71435 13.658 6.78157 14.5366 6.89653C13.9843 5.61869 13.2109 4.45816 12.2203 3.50447C12.0976 3.49061 11.974 3.47935 11.8497 3.47075V6.6938ZM16.6011 11.4C16.5571 10.3303 16.3952 9.26378 16.114 8.23466C17.3524 8.50632 18.4736 8.88748 19.3897 9.37389C19.5977 10.0192 19.7312 10.6979 19.7799 11.4H16.6011ZM15.745 7.08826C16.8315 7.29233 17.8588 7.57522 18.7765 7.93915C17.7552 6.05036 16.0436 4.58957 13.9798 3.89492C14.7289 4.85718 15.3166 5.93919 15.745 7.08826ZM8.04897 6.88572C8.90037 6.77744 9.77453 6.71381 10.6497 6.69385V3.47087C10.5278 3.47934 10.4065 3.49036 10.286 3.50389C9.3304 4.45478 8.58331 5.61161 8.04897 6.88572ZM6.01257 12.6H2.72131C2.76141 13.1785 2.85905 13.7411 3.00854 14.2822C3.94932 14.7988 5.11772 15.2007 6.41346 15.483C6.18466 14.5416 6.05139 13.572 6.01257 12.6ZM6.74182 16.621C5.58679 16.4031 4.4991 16.0962 3.53912 15.6973C4.53776 17.7764 6.35245 19.3893 8.56803 20.1208C7.774 19.0737 7.16623 17.8844 6.74182 16.621ZM7.9264 16.8104C8.81636 16.9284 9.73248 16.9973 10.6497 17.0182V20.5293C10.5278 20.5208 10.4066 20.5098 10.2862 20.4963C9.25504 19.4703 8.46669 18.2045 7.9264 16.8104ZM10.6497 15.9679C9.59145 15.9428 8.54674 15.8515 7.55451 15.6958C7.27286 14.6986 7.10859 13.6547 7.06343 12.6H10.6497V15.9679ZM11.8497 17.0182V20.5294C11.9739 20.5208 12.0975 20.5096 12.2202 20.4957C13.2891 19.4667 14.1051 18.1968 14.6633 16.7986C13.745 16.9239 12.798 16.9967 11.8497 17.0182ZM15.0475 15.6798C14.0248 15.8454 12.9445 15.9421 11.8497 15.968V12.6H15.5502C15.5038 13.6489 15.3357 14.6873 15.0475 15.6798ZM15.8558 16.6026C15.4202 17.8669 14.7957 19.0571 13.9797 20.1053C16.174 19.3667 17.9702 17.762 18.9619 15.6976C18.0287 16.0853 16.9749 16.3861 15.8558 16.6026ZM19.4925 14.2826C18.5775 14.785 17.4471 15.1788 16.1938 15.4597C16.426 14.5258 16.5615 13.5642 16.6011 12.6H19.7799C19.7398 13.1786 19.6421 13.7414 19.4925 14.2826ZM1.35059 12.0001C1.35059 6.53246 5.78297 2.10008 11.2506 2.10008C16.7182 2.10008 21.1506 6.53246 21.1506 12.0001C21.1506 17.4677 16.7182 21.9001 11.2506 21.9001C5.78297 21.9001 1.35059 17.4677 1.35059 12.0001Z" fill="white"/>
</svg>
