<svg width="24" height="24" viewBox="0 0 24 24" fill="none" xmlns="http://www.w3.org/2000/svg">
<path fill-rule="evenodd" clip-rule="evenodd" d="M21.3399 11.9999C21.3399 7.31954 17.691 2.65994 11.9999 2.65994C7.03634 2.65994 4.78073 6.61237 3.96623 8.22536L3.92854 8.29998H7.1999C7.47605 8.29998 7.6999 8.52384 7.6999 8.79998C7.6999 9.07612 7.47605 9.29998 7.1999 9.29998H2.3999C2.12376 9.29998 1.8999 9.07612 1.8999 8.79998V3.99998C1.8999 3.72384 2.12376 3.49998 2.3999 3.49998C2.67604 3.49998 2.8999 3.72384 2.8999 3.99998V8.11854L3.07358 7.7746C3.89935 6.1393 6.40347 1.65994 11.9999 1.65994C18.3137 1.65994 22.3399 6.84034 22.3399 11.9999C22.3399 17.1595 18.3137 22.3399 11.9999 22.3399C8.97343 22.3399 6.46017 21.144 4.67064 19.3231C3.71146 18.3471 2.9617 17.1934 2.45037 15.951C2.34528 15.6956 2.4671 15.4034 2.72246 15.2983C2.97782 15.1932 3.27003 15.315 3.37512 15.5704C3.83876 16.697 4.51789 17.741 5.38385 18.6222C6.99291 20.2594 9.25221 21.3399 11.9999 21.3399C17.691 21.3399 21.3399 16.6803 21.3399 11.9999ZM2.8999 8.24704V8.29998H3.00475L2.8999 8.24704ZM11.9999 6.7C12.276 6.7 12.4999 6.92386 12.4999 7.2V11.7929L15.5535 14.8465C15.7487 15.0417 15.7487 15.3583 15.5535 15.5536C15.3582 15.7488 15.0416 15.7488 14.8463 15.5536L11.6463 12.3536C11.5526 12.2598 11.4999 12.1326 11.4999 12V7.2C11.4999 6.92386 11.7238 6.7 11.9999 6.7Z" fill="white"/>
</svg>
