<svg width="24" height="24" viewBox="0 0 24 24" fill="none" xmlns="http://www.w3.org/2000/svg">
<path fill-rule="evenodd" clip-rule="evenodd" d="M4.5 3.39999C4.5 3.12385 4.72386 2.89999 5 2.89999H14.7858C14.9184 2.89999 15.0456 2.95267 15.1393 3.04644L19.3536 7.26065C19.4473 7.35442 19.5 7.4816 19.5 7.61421V20.6C19.5 20.8761 19.2761 21.1 19 21.1H5C4.72386 21.1 4.5 20.8761 4.5 20.6V3.39999ZM5 1.89999C4.17157 1.89999 3.5 2.57157 3.5 3.39999V20.6C3.5 21.4284 4.17157 22.1 5 22.1H19C19.8284 22.1 20.5 21.4284 20.5 20.6V7.61421C20.5 7.21638 20.342 6.83485 20.0607 6.55355L15.8464 2.33933C15.5651 2.05803 15.1836 1.89999 14.7858 1.89999H5ZM7.2 6.69999C6.92386 6.69999 6.7 6.92385 6.7 7.19999C6.7 7.47614 6.92386 7.69999 7.2 7.69999H12C12.2761 7.69999 12.5 7.47614 12.5 7.19999C12.5 6.92385 12.2761 6.69999 12 6.69999H7.2ZM7.2 11.5C6.92386 11.5 6.7 11.7239 6.7 12C6.7 12.2761 6.92386 12.5 7.2 12.5H16.8C17.0761 12.5 17.3 12.2761 17.3 12C17.3 11.7239 17.0761 11.5 16.8 11.5H7.2ZM7.2 16.3C6.92386 16.3 6.7 16.5239 6.7 16.8C6.7 17.0761 6.92386 17.3 7.2 17.3H16.8C17.0761 17.3 17.3 17.0761 17.3 16.8C17.3 16.5239 17.0761 16.3 16.8 16.3H7.2Z" fill="white"/>
</svg>
